<svg width="82" height="13" viewBox="0 0 82 13" fill="none" xmlns="http://www.w3.org/2000/svg">
<path d="M0.256338 12.5495V10.104C1.6662 10.5545 2.8838 10.7475 3.97324 10.7475C5.44718 10.7475 6.2162 10.3614 6.2162 9.58911C6.2162 9.26733 6.08803 9.07426 5.89577 8.81683C5.70352 8.55941 5.12676 8.30198 4.16549 7.91584C2.4993 7.27228 1.47394 6.69307 0.961268 6.17822C0.320423 5.53465 0 4.76238 0 3.79703C0 2.57426 0.448592 1.60891 1.40986 0.965347C2.37113 0.386139 3.58873 0.0643564 5.06268 0.0643564C5.89577 0.0643564 7.0493 0.193069 8.65141 0.514851V2.89604C7.49789 2.44554 6.40845 2.18812 5.44718 2.18812C4.03732 2.18812 3.33239 2.57426 3.33239 3.34653C3.33239 3.60396 3.46056 3.86139 3.7169 4.05446L5.63944 5.0198C7.17746 5.66337 8.20282 6.30693 8.65141 6.75743C9.22817 7.33663 9.54859 8.10891 9.54859 9.07426C9.54859 10.4257 8.97183 11.4554 7.75422 12.1634C6.79296 12.7426 5.57535 13 4.03732 13C2.8838 13 1.60211 12.8713 0.256338 12.5495V12.5495ZM11.5993 12.7426V0.257426H15.0599V12.7426H11.5993V12.7426ZM18.2641 12.7426V0.257426H27.1718V2.5099H21.5965V5.34158H26.4669V7.40099H21.5965V10.3614H27.3V12.7426H18.2641ZM29.607 12.7426V0.257426H34.157L37.2972 8.23762L40.5014 0.257426H44.7951V12.7426H41.4627V3.92574L37.8099 12.8713H35.631L32.0423 3.92574V12.7426H29.607V12.7426ZM47.9993 12.7426V0.257426H56.907V2.5099H51.3317V5.34158H56.2021V7.40099H51.3317V10.3614H57.0352V12.7426H47.9993ZM59.3423 12.7426V0.257426H63.3796L67.6732 8.62376V0.257426H70.1085V12.7426H66.1993L61.7775 4.31188V12.7426H59.3423ZM72.6077 12.5495V10.104C74.0176 10.5545 75.2352 10.7475 76.3246 10.7475C77.7986 10.7475 78.5676 10.3614 78.5676 9.58911C78.5676 9.26733 78.4394 9.07426 78.2472 8.81683C78.0549 8.62376 77.4782 8.30198 76.5169 7.91584C74.9148 7.27228 73.8254 6.69307 73.3127 6.17822C72.6718 5.53465 72.3514 4.76238 72.3514 3.79703C72.3514 2.57426 72.8 1.60891 73.7613 0.965347C74.7225 0.321782 75.9401 0 77.4141 0C78.2472 0 79.3366 0.128713 80.6824 0.386139L81.0028 0.450495V2.83168C79.8493 2.38119 78.7599 2.12376 77.7986 2.12376C76.3887 2.12376 75.6838 2.5099 75.6838 3.28218C75.6838 3.5396 75.812 3.79703 76.0683 3.9901C76.2606 4.11881 76.9655 4.44059 77.9908 4.95545C79.5289 5.59901 80.4901 6.24257 81.0028 6.69307C81.5796 7.27228 81.9 8.04455 81.9 9.0099C81.9 10.3614 81.3232 11.3911 80.1697 12.099C79.2084 12.6782 77.9908 12.9356 76.4528 12.9356C75.1711 13 73.8894 12.8713 72.6077 12.5495V12.5495Z" fill="white"/>
</svg>
